<svg width="83" height="51" viewBox="0 0 83 51" fill="none" xmlns="http://www.w3.org/2000/svg">
<path fill-rule="evenodd" clip-rule="evenodd" d="M20.2574 47.0449C14.0464 48.1402 7.75409 48.6962 1.44928 48.7067L1.44928 48.706C0.79612 48.7162 0.604866 49.7919 1.2905 49.8966C8.55243 50.8877 15.9302 50.5798 23.0866 48.9869C35.8026 46.3203 47.7606 40.7917 58.0722 32.8118C63.2669 28.823 67.9925 24.2459 72.1567 19.17C74.3673 16.4228 76.4087 13.5444 78.2704 10.5512L78.2841 10.4816C78.6199 8.78753 78.9602 7.09579 79.3097 5.40591C80.3772 5.23184 80.5617 3.7954 79.7238 3.42611C79.8605 2.78003 79.9988 2.13419 80.1389 1.48858L82.6758 2.56898C81.3452 5.30786 79.8745 7.97213 78.2704 10.5512L77.4461 14.7364C77.5722 14.5202 77.804 14.3818 78.0604 14.3818C78.374 14.3818 78.6509 14.5889 78.7424 14.8922C79.0015 15.9489 79.1476 16.9983 79.2954 18.0601C79.3452 18.4177 79.3951 18.7768 79.4497 19.1379L76.6082 19.5278C76.6309 20.1541 77.0506 20.717 77.6761 20.8913C78.4296 21.1013 79.2127 20.6721 79.4497 19.9192C79.8719 18.4464 80.1819 16.9432 80.3771 15.4225L81.2035 11.0962C81.77 8.14777 82.3077 5.19326 82.8165 2.23267C82.9849 1.55634 82.6445 0.856152 82.0118 0.577786C81.3738 0.300732 80.6315 0.546768 80.2797 1.15191C79.945 1.88752 79.5984 2.61708 79.2402 3.34031C77.211 3.37363 75.1911 3.62093 73.2138 4.07813C72.1888 4.32779 71.182 4.64725 70.2006 5.03429C69.3315 5.25494 68.545 5.72273 67.9362 6.38105C67.7975 6.62011 67.7773 6.90995 67.8815 7.16594C67.9858 7.42192 68.2027 7.61519 68.469 7.68929C69.3332 7.72435 70.1936 7.55719 70.9818 7.20113C71.8061 6.94887 72.6426 6.73404 73.4801 6.51897C73.5497 6.50109 73.6193 6.4832 73.689 6.46529C75.1386 6.08818 76.6071 5.78928 78.0882 5.56978C75.4611 10.4484 72.2917 15.0144 68.6383 19.1777C60.2793 28.7983 49.9112 36.4228 38.2825 41.5006C32.4978 44.0231 26.4517 45.8828 20.2574 47.0449ZM77.0366 16.5575C77.1425 16.0316 77.2624 15.5085 77.3964 14.9889L77.4461 14.7364C77.418 14.7846 77.3951 14.8368 77.3783 14.8922C77.2391 15.4483 77.1306 16.0025 77.0366 16.5575ZM77.0366 16.5575C76.8389 17.5398 76.6903 18.5319 76.5917 19.53L76.6082 19.5278C76.6035 19.3995 76.6155 19.2687 76.6458 19.1379C76.7005 18.7873 76.7512 18.4386 76.8016 18.0913C76.8761 17.5778 76.9503 17.0673 77.0366 16.5575Z" fill="#8082A5"/>
</svg>
